<svg xmlns="http://www.w3.org/2000/svg" viewBox="0 0 64 64">
  <rect width="64" height="64" rx="14" fill="#10150F"/>
  <path d="M10 14.5 28 6.5h20.5L54 18v31.5L36.5 57.5H16L10 45.5Z" stroke="#E8FF6A" stroke-width="2.2" fill="none" stroke-linejoin="round"/>
  <path d="M22 40.5V24.2c0-1.2.7-2.2 1.8-2.6l7.4-2.6c.9-.3 1.9.2 2.3 1.1l1.3 3.1c.3.8 1.1 1.3 2 1.2l4.8-.5c1.2-.1 2.2.8 2.2 2v14.6" stroke="#F4F0E4" stroke-width="2.4" fill="none" stroke-linecap="round" stroke-linejoin="round"/>
  <path d="M22 33.2h10.8c1.1 0 2 .8 2.1 1.9l.3 3.4" stroke="#E8FF6A" stroke-width="2.4" fill="none" stroke-linecap="round"/>
  <path d="m34.2 40.5 4.2-9.4 4.4 9.4" stroke="#F4F0E4" stroke-width="2.4" fill="none" stroke-linecap="round" stroke-linejoin="round"/>
</svg>
